<?xml version="1.0" encoding="UTF-8" standalone="no"?>
<svg width="1024px" height="142px" viewBox="0 0 1024 142" version="1.1" xmlns="http://www.w3.org/2000/svg" xmlns:xlink="http://www.w3.org/1999/xlink" xmlns:sketch="http://www.bohemiancoding.com/sketch/ns">
    <!-- Generator: Sketch 3.2.2 (9983) - http://www.bohemiancoding.com/sketch -->
    <title>audio-wave</title>
    <desc>Created with Sketch.</desc>
    <defs>
        <linearGradient x1="0.00654%" y1="49.9517241%" x2="100.00664%" y2="49.9517241%" id="linearGradient-1">
            <stop stop-color="#81D4FA" offset="0%"></stop>
            <stop stop-color="#FCD87B" offset="25%"></stop>
            <stop stop-color="#F06292" offset="50%"></stop>
            <stop stop-color="#FFF176" offset="75%"></stop>
            <stop stop-color="#A0D5DA" offset="100%"></stop>
        </linearGradient>
    </defs>
    <g id="Welcome" stroke="none" stroke-width="1" fill="none" fill-rule="evenodd" sketch:type="MSPage">
        <g id="Desktop" sketch:type="MSArtboardGroup" transform="translate(0.000000, -157.000000)" stroke="url(#linearGradient-1)">
            <g id="main" sketch:type="MSLayerGroup" transform="translate(-1.000000, 60.000000)">
                <g id="audio-wave" transform="translate(1.000000, 98.000000)" sketch:type="MSShapeGroup">
                    <path d="M0.436327345,103.465672 L69.7904192,103.465672 L71.0215569,103.465672 L71.8423154,104.692537 L80.8706587,119.210448 L88.6678643,98.7626866 L90.5145709,93.8552239 L92.9768463,98.558209 L105.493413,123.913433 L114.111377,86.6985075 L116.368463,77.7014925 L118.830739,86.6985075 L128.67984,123.913433 L137.708184,104.897015 L139.55489,101.01194 L141.811976,104.692537 L151.045509,119.210448 L161.0998,92.6283582 L163.356886,86.2895522 L165.408782,92.8328358 L175.257884,124.322388 L184.491417,104.897015 L186.338124,101.01194 L188.59521,104.692537 L197.213174,118.597015 L207.677844,74.4298507 L209.319361,66.8641791 L211.986826,74.0208955 L232.710978,128.820896 L242.56008,86.6985075 L244.817166,77.7014925 L247.074251,86.6985075 L256.923353,123.095522 L266.156886,98.7626866 L267.798403,94.4686567 L270.260679,98.3537313 L278.878643,112.258209 L289.343313,68.0910448 L292.010778,57.0492537 L293.857485,68.2955224 L303.911776,125.958209 L312.73493,92.8328358 L314.171257,87.7208955 L317.043912,92.219403 L325.661876,106.123881 L336.126547,61.9567164 L338.999202,49.6880597 L340.640719,62.161194 L350.48982,135.568657 L359.312974,93.0373134 L360.749301,86.2895522 L363.827146,92.4238806 L372.23992,110.622388 L378.600798,74.4298507 L381.883832,55.8223881 L383.32016,74.6343284 L385.782435,109.191045 L394.400399,49.6880597 L397.067864,31.6940299 L399.11976,49.8925373 L408.558483,136.386567 L417.792016,68.2955224 L419.433533,55.8223881 L422.306188,68.0910448 L431.539721,106.941791 L441.183633,55.8223881 L443.645908,42.1223881 L445.697804,56.0268657 L455.546906,124.322388 L464.57525,86.6985075 L466.832335,76.4746269 L469.089421,86.6985075 L477.707385,128.616418 L487.761677,43.5537313 L490.223952,22.9014925 L492.481038,43.758209 L501.714571,131.479104 L511.153293,25.1507463 L513.410379,0 L515.872655,25.1507463 L525.311377,125.753731 L534.54491,37.419403 L536.801996,15.9492537 L539.059082,37.419403 L548.497804,120.641791 L557.936527,68.2955224 L560.398802,54.8 L562.450699,68.2955224 L571.684232,126.980597 L581.328144,56.0268657 L583.17485,41.7134328 L585.842315,55.8223881 L595.486228,106.941791 L604.71976,68.0910448 L607.387226,56.2313433 L609.233932,68.2955224 L618.262275,130.865672 L627.906188,43.5537313 L629.958084,24.741791 L632.625549,43.5537313 L641.243513,108.168657 L643.705788,74.6343284 L645.142116,55.8223881 L648.21996,74.4298507 L654.580838,110.622388 L663.198802,92.4238806 L666.071457,86.4940299 L667.507784,93.0373134 L676.330938,130.456716 L686.38523,62.161194 L688.026747,50.0970149 L690.899401,61.9567164 L701.364072,106.123881 L709.982036,92.219403 L712.649501,87.9253731 L714.291018,92.8328358 L723.114172,121.050746 L732.963273,68.2955224 L735.01517,57.458209 L737.682635,68.0910448 L747.942116,112.258209 L756.765269,98.3537313 L759.227545,94.4686567 L760.869062,98.7626866 L769.897405,123.095522 L779.746507,86.6985075 L782.208782,77.7014925 L784.260679,86.6985075 L794.31497,128.820896 L814.833932,74.0208955 L817.501397,66.8641791 L819.348104,74.4298507 L829.812774,118.597015 L838.430739,104.692537 L840.687824,101.01194 L842.534531,104.897015 L851.562874,124.322388 L861.617166,92.8328358 L863.669062,86.2895522 L865.926148,92.6283582 L875.980439,119.210448 L885.213972,104.692537 L887.471058,101.01194 L889.317764,104.897015 L898.551297,124.731343 L908.19521,98.7626866 L910.247106,93.4462687 L912.709381,98.7626866 L923.789621,124.526866 L931.586826,105.101493 L933.023154,101.625373 L935.485429,104.283582 L945.539721,114.916418 L955.388822,104.283582 L956.209581,103.465672 L957.235529,103.465672 L1026.38443,103.465672" id="Shape"></path>
                </g>
            </g>
        </g>
    </g>
</svg>