<?xml version="1.0" encoding="UTF-8" standalone="no"?>
<svg width="100px" height="100px" viewBox="0 0 100 100" version="1.1" xmlns="http://www.w3.org/2000/svg" xmlns:xlink="http://www.w3.org/1999/xlink" xmlns:sketch="http://www.bohemiancoding.com/sketch/ns">
    <!-- Generator: Sketch 3.2.2 (9983) - http://www.bohemiancoding.com/sketch -->
    <title>icon_microphone</title>
    <desc>Created with Sketch.</desc>
    <defs></defs>
    <g id="Welcome" stroke="none" stroke-width="1" fill="none" fill-rule="evenodd" sketch:type="MSPage">
        <g id="Desktop" sketch:type="MSArtboardGroup" transform="translate(-224.000000, -548.000000)" fill="#FFFFFF">
            <g id="INPUT" sketch:type="MSLayerGroup" transform="translate(92.000000, 430.000000)">
                <g id="icon_microphone" transform="translate(132.000000, 118.000000)" sketch:type="MSShapeGroup">
                    <path d="M49.7983871,99.6370968 C36.4919355,99.6370968 23.9919355,94.4758065 14.5564516,85.0403226 C5.16129032,75.6451613 0,63.1048387 0,49.7983871 C0,36.4919355 5.16129032,23.9919355 14.5967742,14.5564516 C23.9919355,5.16129032 36.4919355,0 49.7983871,0 C63.1048387,0 75.6048387,5.16129032 85.0403226,14.5967742 C94.4354839,23.9919355 99.6370968,36.5322581 99.6370968,49.8387097 C99.6370968,63.1451613 94.4758065,75.6451613 85.0403226,85.0806452 C75.6451613,94.4354839 63.1048387,99.6370968 49.7983871,99.6370968 L49.7983871,99.6370968 Z M49.7983871,4.83870968 C37.7822581,4.83870968 26.4919355,9.51612903 17.983871,18.0241935 C9.47580645,26.5322581 4.83870968,37.7822581 4.83870968,49.7983871 C4.83870968,61.8145161 9.51612903,73.1048387 18.0241935,81.6129032 C26.5322581,90.1209677 37.8225806,94.7983871 49.8387097,94.7983871 C61.8548387,94.7983871 73.1451613,90.1209677 81.6532258,81.6129032 C90.1612903,73.1048387 94.8387097,61.8145161 94.8387097,49.7983871 C94.8387097,37.7822581 90.1612903,26.4919355 81.6532258,17.983871 C73.1048387,9.51612903 61.8145161,4.83870968 49.7983871,4.83870968 L49.7983871,4.83870968 Z" id="Shape"></path>
                    <rect id="Rectangle-path" x="35.6854839" y="24.1935484" width="28.2258065" height="28.2258065"></rect>
                    <circle id="Oval" cx="49.7983871" cy="24.1935484" r="14.1129032"></circle>
                    <circle id="Oval" cx="49.7983871" cy="52.4193548" r="14.1129032"></circle>
                    <path d="M69.9596774,35 C68.1854839,35 66.733871,36.4516129 66.733871,38.2258065 L66.733871,50.3225806 L66.733871,52.4193548 C66.733871,61.7741935 59.1532258,69.3548387 49.7983871,69.3548387 C40.4435484,69.3548387 32.8629032,61.7741935 32.8629032,52.4193548 L32.8629032,50.3225806 L32.8629032,38.2258065 C32.8629032,36.4516129 31.4112903,35 29.6370968,35 C27.8629032,35 26.4112903,36.4516129 26.4112903,38.2258065 L26.4112903,50.3225806 L26.4112903,52.4193548 C26.4112903,55.4435484 27.0967742,58.5080645 28.4274194,61.4112903 C29.6774194,64.1532258 31.4516129,66.6935484 33.7096774,68.9516129 C37.1370968,72.3790323 41.733871,74.6774194 46.5725806,75.483871 L46.5725806,82.4596774 L39.0322581,82.4596774 C37.2580645,82.4596774 35.8064516,83.9112903 35.8064516,85.6854839 C35.8064516,87.4596774 37.2580645,88.9112903 39.0322581,88.9112903 L62.4193548,88.9112903 C64.1935484,88.9112903 65.6451613,87.4596774 65.6451613,85.6854839 C65.6451613,83.9112903 64.1935484,82.4596774 62.4193548,82.4596774 L53.0645161,82.4596774 L53.0645161,75.6451613 C58.3064516,75.0806452 62.8629032,72.7822581 66.733871,68.9516129 C70.9677419,64.7177419 73.2258065,58.9919355 73.2258065,52.4193548 L73.2258065,50.3225806 L73.2258065,38.2258065 C73.1854839,36.4516129 71.733871,35 69.9596774,35 L69.9596774,35 Z" id="Shape"></path>
                </g>
            </g>
        </g>
    </g>
</svg>