<?xml version="1.0" encoding="utf-8"?>
<!-- Generator: Adobe Illustrator 18.0.0, SVG Export Plug-In . SVG Version: 6.00 Build 0)  -->
<!DOCTYPE svg PUBLIC "-//W3C//DTD SVG 1.1//EN" "http://www.w3.org/Graphics/SVG/1.1/DTD/svg11.dtd">
<svg version="1.1" id="microphone" xmlns="http://www.w3.org/2000/svg" xmlns:xlink="http://www.w3.org/1999/xlink" x="0px" y="0px"
	 viewBox="0 0 248 248" enable-background="new 0 0 248 248" xml:space="preserve">
<path fill="#0099FF" d="M124,247.5c-33,0-64-12.8-87.4-36.2C13.3,188,0.5,157,0.5,124s12.8-64,36.2-87.4C60,13.3,91,0.5,124,0.5
	c33,0,64,12.8,87.4,36.2C234.7,60,247.5,91,247.5,124s-12.8,64-36.2,87.4C188,234.7,157,247.5,124,247.5z M124,12.5
	c-29.8,0-57.8,11.6-78.9,32.7S12.5,94.2,12.5,124s11.6,57.8,32.7,78.9c21.1,21.1,49.1,32.7,78.9,32.7s57.8-11.6,78.9-32.7
	c21.1-21.1,32.7-49.1,32.7-78.9s-11.6-57.8-32.7-78.9C181.8,24.1,153.8,12.5,124,12.5z"/>
<rect x="89" y="60.5" fill="#0099FF" width="70" height="70"/>
<circle fill="#0099FF" cx="124" cy="60.5" r="35"/>
<circle fill="#0099FF" cx="124" cy="130.5" r="35"/>
<path fill="#0099FF" d="M174,87.3c-4.4,0-8,3.6-8,8v30v5.2c0,23.2-18.8,42-42,42c-23.2,0-42-18.8-42-42v-5.2v-30c0-4.4-3.6-8-8-8
	s-8,3.6-8,8v30v5.2c0,7.5,1.7,15.1,5,22.3c3.1,6.8,7.5,13.1,13.1,18.7c8.5,8.5,19.9,14.2,31.9,16.2V205H97.2c-4.4,0-8,3.6-8,8
	s3.6,8,8,8h58c4.4,0,8-3.6,8-8s-3.6-8-8-8H132v-16.9c13-1.4,24.3-7.1,33.9-16.6c10.5-10.5,16.1-24.7,16.1-41v-5.2v-30
	C182,90.9,178.4,87.3,174,87.3z"/>
</svg>
