<?xml version="1.0" encoding="UTF-8" standalone="no"?>
<svg width="88px" height="100px" viewBox="0 0 88 100" version="1.1" xmlns="http://www.w3.org/2000/svg" xmlns:xlink="http://www.w3.org/1999/xlink" xmlns:sketch="http://www.bohemiancoding.com/sketch/ns">
    <!-- Generator: Sketch 3.2.2 (9983) - http://www.bohemiancoding.com/sketch -->
    <title>icon_shake</title>
    <desc>Created with Sketch.</desc>
    <defs></defs>
    <g id="Welcome" stroke="none" stroke-width="1" fill="none" fill-rule="evenodd" sketch:type="MSPage">
        <g id="Desktop" sketch:type="MSArtboardGroup" transform="translate(-720.000000, -543.000000)" fill="#FFFFFF">
            <g id="INPUT" sketch:type="MSLayerGroup" transform="translate(92.000000, 430.000000)">
                <g id="icon_shake" transform="translate(628.000000, 113.000000)" sketch:type="MSShapeGroup">
                    <path d="M85.4728205,38.2432432 L58.8471795,23.1081081 C56.8164103,21.981982 54.2892308,22.8828829 53.1610256,24.8648649 L48.2420513,33.4684685 C48.0615385,33.3333333 47.9261538,33.2432432 47.7005128,33.1531532 C44.9025641,31.5765766 41.3825641,32.5675676 39.7579487,35.3153153 C38.1784615,38.1081081 39.1712821,41.6216216 41.9241026,43.2432432 C42.1046154,43.3333333 42.2851282,43.4234234 42.465641,43.5135135 L42.0594872,44.2342342 C41.6984615,43.8288288 41.2471795,43.4684685 40.7507692,43.1981982 C37.9528205,41.6216216 34.4328205,42.6126126 32.8082051,45.3603604 C31.2287179,48.1531532 32.2215385,51.6666667 34.974359,53.2882883 C35.4707692,53.5585586 36.0123077,53.7837838 36.5538462,53.9189189 L35.7866667,55.2702703 C35.425641,54.8648649 34.974359,54.5045045 34.4779487,54.2342342 C31.68,52.6576577 28.16,53.6486486 26.5353846,56.3963964 C24.9558974,59.1891892 25.9487179,62.7027027 28.7015385,64.3243243 C29.1979487,64.5945946 29.7394872,64.8198198 30.2810256,64.954955 L25.9035897,72.6126126 C24.7753846,74.6396396 25.4071795,77.027027 27.4379487,78.1531532 L28.9271795,79.009009 L29.1076923,79.0990991 C26.4902564,84.2792793 30.9128205,91.6666667 38.945641,96.2162162 C43.7292308,98.9189189 48.7835897,100 52.6646154,99.4594595 C56.9066667,100.900901 62.9989744,99.4144144 68.4594872,95.4504505 C73.6492308,91.6666667 78.6584615,82.2972973 80.2830769,79.2342342 C80.4635897,78.8738739 80.6441026,78.5585586 80.734359,78.4234234 C81.8174359,76.5315315 86.5558974,60.9459459 82.2235897,58.4684685 C81.3210256,57.972973 80.3733333,57.6576577 79.425641,57.5225225 L87.0071795,44.1891892 C88.225641,42.2072072 87.4584615,39.4144144 85.4728205,38.2432432 L85.4728205,38.2432432 Z M42.0594872,36.6666667 C42.9169231,35.1351351 44.8574359,34.6396396 46.3917949,35.4954955 C46.5723077,35.5855856 46.7528205,35.7207207 46.8882051,35.8558559 C48.0164103,36.8018018 48.3323077,38.4684685 47.5651282,39.8198198 C46.7979487,41.1711712 45.2184615,41.7117117 43.8194872,41.2612613 C43.6389744,41.2162162 43.4584615,41.1261261 43.2328205,40.990991 C41.7435897,40.1351351 41.2020513,38.1981982 42.0594872,36.6666667 L42.0594872,36.6666667 Z M36.3282051,50.990991 C34.7938462,50.1351351 34.2974359,48.1981982 35.1548718,46.6666667 C36.0123077,45.1351351 37.9528205,44.6396396 39.4871795,45.4954955 C40.0287179,45.8108108 40.4348718,46.2162162 40.705641,46.7567568 C41.2020513,47.7027027 41.2471795,48.8288288 40.6605128,49.8198198 C40.1189744,50.8108108 39.0810256,51.3513514 38.0430769,51.3963964 C37.4564103,51.4414414 36.8697436,51.3063063 36.3282051,50.990991 L36.3282051,50.990991 Z M30.0553846,61.981982 C28.5210256,61.1261261 28.0246154,59.1891892 28.8820513,57.6576577 C29.7394872,56.1261261 31.68,55.6306306 33.214359,56.4864865 C33.7558974,56.8018018 34.1620513,57.2072072 34.4328205,57.7477477 C34.9292308,58.6936937 34.974359,59.8198198 34.3876923,60.8108108 C33.8461538,61.8018018 32.8082051,62.3423423 31.7702564,62.3873874 C31.1835897,62.4324324 30.5969231,62.2972973 30.0553846,61.981982 L30.0553846,61.981982 Z M81.0051282,60.7657658 C81.3210256,60.990991 81.9076923,62.8828829 80.9148718,68.4684685 C80.1928205,72.4324324 79.0194872,76.2162162 78.5230769,77.0720721 C78.4328205,77.2522523 78.2523077,77.5675676 78.0266667,77.972973 C76.4471795,80.9009009 71.6635897,89.8648649 66.9702564,93.2882883 C66.6092308,93.5585586 66.2482051,93.7837838 65.8871795,94.009009 C65.7969231,94.0990991 65.6615385,94.1441441 65.5712821,94.1891892 C65.3005128,94.3693694 65.0748718,94.5045045 64.8041026,94.6396396 C64.6687179,94.6846847 64.5784615,94.7747748 64.4430769,94.8198198 C64.1723077,94.954955 63.9015385,95.0900901 63.6307692,95.2252252 C63.5405128,95.2702703 63.4502564,95.3153153 63.3148718,95.3603604 C62.9989744,95.4954955 62.6830769,95.6306306 62.4123077,95.7657658 C62.3671795,95.8108108 62.3220513,95.8108108 62.2317949,95.8558559 C59.6594872,96.9369369 57.1323077,97.3873874 55.0564103,97.1621622 C54.9661538,97.1621622 54.9210256,97.1621622 54.8307692,97.1171171 C54.6953846,97.1171171 54.56,97.0720721 54.4246154,97.027027 C54.334359,97.027027 54.1989744,96.981982 54.1087179,96.9369369 C54.0184615,96.8918919 53.8830769,96.8918919 53.7928205,96.8468468 C53.6574359,96.8018018 53.5220513,96.7567568 53.3866667,96.7117117 C53.2964103,96.6666667 53.2512821,96.6666667 53.1610256,96.6216216 C52.9805128,96.5315315 52.7548718,96.4414414 52.574359,96.3513514 C52.4389744,96.2612613 52.3035897,96.1711712 52.1682051,96.0810811 L48.1066667,96.0810811 C45.4441026,95.7657658 43.1425641,94.8648649 40.4348718,93.3333333 C37.0051282,91.3963964 34.2523077,88.8288288 32.6728205,86.1711712 C31.9507692,84.9099099 30.8676923,82.4324324 31.8153846,80.4954955 L48.1517949,89.7747748 L50.5435897,91.1261261 C50.6789744,90.4054054 50.9046154,89.6396396 51.265641,88.8288288 C51.3558974,88.5585586 51.4912821,88.3333333 51.6266667,88.0630631 C52.9353846,85.4954955 55.1466667,82.972973 57.9446154,80.9459459 C59.8851282,79.5045045 62.0061538,78.4234234 64.0820513,77.7477477 C65.4810256,77.2972973 66.8348718,76.981982 68.0984615,76.9369369 L68.1887179,76.9369369 C68.5497436,76.8918919 68.865641,76.7117117 69.0912821,76.4414414 C69.3169231,76.1711712 69.4071795,75.8108108 69.3620513,75.4504505 C69.3620513,75.2702703 69.4071795,75 69.4974359,74.6396396 C70.174359,71.8918919 73.1076923,64.2792793 74.1907692,62.3873874 C75.0030769,60.990991 76.3569231,60.1351351 77.8461538,59.954955 C79.0194872,60.045045 80.0574359,60.2252252 81.0051282,60.7657658 L81.0051282,60.7657658 Z M40.254359,67.4774775 L58.0348718,36.3063063 L74.5517949,45.6756757 L56.7712821,76.8468468 L40.254359,67.4774775 L40.254359,67.4774775 Z M84.3446154,42.6576577 L75.4994872,58.1531532 C74.1005128,58.7837838 72.8369231,59.8198198 72.0246154,61.2612613 C71.3928205,62.3873874 69.2266667,67.4774775 67.8728205,71.4414414 C67.4666667,72.6126126 67.1507692,73.7387387 66.9702564,74.5495495 C66.654359,74.5945946 66.3384615,74.6396396 65.9774359,74.7297297 C64.1723077,75.045045 62.3220513,75.7207207 60.4717949,76.5765766 L78.7938462,44.5045045 L56.7712821,31.981982 L35.8769231,68.6486486 L55.4625641,79.7747748 C52.8451282,81.8918919 50.7241026,84.3693694 49.4153846,86.9369369 L30.6871795,76.3063063 L29.0174359,75.3603604 C28.5210256,75.0900901 28.385641,74.5945946 28.7015385,74.0990991 L34.2523077,64.3693694 C35.2451282,63.8738739 36.1025641,63.1081081 36.6892308,62.0720721 C37.2758974,61.036036 37.5015385,59.9099099 37.4112821,58.8288288 L40.5251282,53.3783784 C41.5179487,52.8828829 42.3753846,52.1171171 42.9620513,51.0810811 C43.5487179,50.045045 43.774359,48.9189189 43.6841026,47.8378378 L45.9405128,43.8738739 C47.5651282,43.5585586 49.0092308,42.5675676 49.8666667,41.0810811 C50.7241026,39.5495495 50.814359,37.7927928 50.2728205,36.2612613 L55.8687179,26.4414414 C56.1394872,25.9459459 56.7712821,25.5855856 57.2676923,25.8558559 L83.8933333,40.990991 C84.3897436,41.3063063 84.6153846,42.1621622 84.3446154,42.6576577 L84.3446154,42.6576577 Z" id="Shape"></path>
                    <path d="M30.4615385,32.3873874 L36.1928205,41.0810811 C36.1025641,41.0810811 36.0123077,41.1261261 35.9671795,41.1261261 C34.974359,41.3963964 34.1169231,41.8468468 33.3497436,42.4774775 L29.6041026,36.8018018 L13.7189744,47.2072072 L27.0769231,67.5225225 L25.3169231,70.6306306 L9.34153846,46.3513514 L30.4615385,32.3873874 L30.4615385,32.3873874 Z M27.1671795,79.7747748 L26.6707692,79.5045045 C24.9107692,78.5135135 23.8728205,76.7117117 23.7825641,74.8648649 L20.9394872,70.4954955 C20.9394872,69.4144144 20.6235897,68.2882883 19.9917949,67.2972973 C19.36,66.3063063 18.4574359,65.5855856 17.4194872,65.1351351 L14.9374359,61.3513514 C15.3887179,59.7747748 15.1630769,58.018018 14.2153846,56.5765766 C13.2676923,55.0900901 11.7333333,54.2342342 10.1087179,54.009009 L3.74564103,44.3243243 C3.47487179,43.9189189 3.61025641,43.3333333 4.01641026,43.0630631 L29.6041026,26.3063063 C30.145641,25.9459459 30.9128205,26.0810811 31.2738462,26.6666667 L37.6369231,36.3513514 C37.8174359,35.7657658 38.0430769,35.1351351 38.3589744,34.5945946 C38.6297436,34.0990991 38.9907692,33.6486486 39.3517949,33.2432432 L33.8912821,24.954955 C32.5825641,22.9279279 29.8297436,22.3873874 27.8441026,23.6936937 L2.25641026,40.4504505 C0.361025641,41.6666667 -0.135384615,44.1891892 1.08307692,46.0810811 L6.67897436,54.5945946 C6.49846154,54.6846847 6.31794872,54.7747748 6.1374359,54.9099099 C3.47487179,56.6666667 2.70769231,60.2702703 4.46769231,62.9279279 C6.22769231,65.5855856 9.83794872,66.3513514 12.5005128,64.5945946 C12.6810256,64.4594595 12.8615385,64.3693694 12.9969231,64.2342342 L13.4482051,64.9099099 C12.6810256,65.1351351 11.9138462,65.5405405 11.2820513,66.1261261 C9.16102564,67.972973 8.70974359,71.1711712 10.1989744,73.5585586 C11.9138462,76.3063063 15.614359,77.1171171 18.3220513,75.3153153 C18.8184615,75 19.2246154,74.5945946 19.585641,74.1891892 L20.4430769,75.4954955 C19.6758974,75.7207207 18.9087179,76.1261261 18.2769231,76.7117117 C16.1558974,78.5585586 15.7046154,81.7567568 17.1938462,84.1441441 C18.9087179,86.8918919 22.6092308,87.7027027 25.3169231,85.9009009 C25.8133333,85.5855856 26.2194872,85.1801802 26.5805128,84.7747748 L27.6635897,86.4414414 C26.7610256,84.1441441 26.5805128,81.8468468 27.1671795,79.7747748 L27.1671795,79.7747748 Z M11.5979487,62.027027 C11.1917949,62.4324324 10.6502564,62.7477477 10.0184615,62.8828829 C8.93538462,63.1081081 7.76205128,62.7477477 7.04,61.8918919 C5.73128205,60.4054054 6.09230769,58.1981982 7.67179487,57.1171171 C7.85230769,56.981982 8.03282051,56.8918919 8.21333333,56.8468468 C9.56717949,56.3063063 11.1917949,56.7567568 12.0492308,58.0630631 C12.8615385,59.3243243 12.6810256,60.990991 11.5979487,62.027027 L11.5979487,62.027027 Z M18.0512821,71.8018018 C17.6902564,72.5225225 17.1035897,73.1531532 16.2010256,73.4684685 C15.0728205,73.8738739 13.8092308,73.5585586 12.9517949,72.7477477 C11.4625641,71.2612613 11.7784615,68.9189189 13.4482051,67.8378378 C13.9446154,67.5225225 14.5312821,67.3423423 15.1179487,67.3423423 C16.1558974,67.2972973 17.2389744,67.8378378 17.825641,68.7837838 C18.4574359,69.6846847 18.5025641,70.8558559 18.0512821,71.8018018 L18.0512821,71.8018018 Z M25.0010256,82.3873874 C24.64,83.1081081 24.0533333,83.7387387 23.1507692,84.0540541 C22.0225641,84.4594595 20.7589744,84.1441441 19.9015385,83.3333333 C18.4123077,81.8468468 18.7282051,79.5045045 20.3979487,78.4234234 C20.894359,78.1081081 21.4810256,77.9279279 22.0676923,77.9279279 C23.105641,77.8828829 24.1887179,78.4234234 24.7753846,79.3693694 C25.4071795,80.2702703 25.4523077,81.3963964 25.0010256,82.3873874 L25.0010256,82.3873874 Z" id="Shape"></path>
                    <path d="M74.0102564,6.62162162 C74.0102564,5.18018018 72.7466667,3.96396396 71.3025641,3.96396396 C69.8584615,3.96396396 68.5948718,5.13513514 68.5948718,6.62162162 L68.5948718,12.1171171 C64.5333333,5.04504505 52.9805128,0.135135135 39.2164103,0.135135135 C24.4594872,0.0900900901 12.6358974,5.76576577 9.02564103,13.6486486 L9.02564103,6.62162162 C9.02564103,5.18018018 7.76205128,3.96396396 6.31794872,3.96396396 C4.87384615,3.96396396 3.61025641,5.13513514 3.61025641,6.62162162 L3.61025641,18.8738739 C3.61025641,19.5945946 3.92615385,20.3153153 4.4225641,20.8108108 C4.91897436,21.3063063 5.64102564,21.6666667 6.31794872,21.6666667 L18.5928205,21.6666667 C20.0369231,21.6666667 21.2553846,20.4054054 21.2553846,18.963964 C21.2553846,17.5225225 20.0820513,16.2612613 18.5928205,16.2612613 L13.6287179,16.2612613 C15.7497436,9.90990991 26.625641,5.40540541 39.2615385,5.40540541 C51.8974359,5.40540541 62.7733333,9.95495495 64.9394872,16.2612613 L59.1179487,16.2612613 C57.6738462,16.2612613 56.4553846,17.5225225 56.4553846,18.963964 C56.4553846,20.4054054 57.6287179,21.6666667 59.1179487,21.6666667 L71.3928205,21.6666667 C72.1148718,21.6666667 72.7466667,21.3063063 73.2430769,20.8108108 C73.7394872,20.3153153 74.0102564,19.5945946 74.0102564,18.8738739 L74.0102564,6.62162162 L74.0102564,6.62162162 Z" id="Shape"></path>
                </g>
            </g>
        </g>
    </g>
</svg>