<?xml version="1.0" encoding="utf-8"?>
<!-- Generator: Adobe Illustrator 18.0.0, SVG Export Plug-In . SVG Version: 6.00 Build 0)  -->
<!DOCTYPE svg PUBLIC "-//W3C//DTD SVG 1.1//EN" "http://www.w3.org/Graphics/SVG/1.1/DTD/svg11.dtd">
<svg version="1.1" id="shake" xmlns="http://www.w3.org/2000/svg" xmlns:xlink="http://www.w3.org/1999/xlink" x="0px" y="0px"
	 viewBox="0 0 248 248" enable-background="new 0 0 248 248" xml:space="preserve">
<path fill="#0099FF" d="M222.4,103.9l-59-33.6c-4.5-2.5-10.1-0.5-12.6,3.9l-10.9,19.1c-0.4-0.3-0.7-0.5-1.2-0.7
	c-6.2-3.5-14-1.3-17.6,4.8c-3.5,6.2-1.3,14,4.8,17.6c0.4,0.2,0.8,0.4,1.2,0.6l-0.9,1.6c-0.8-0.9-1.8-1.7-2.9-2.3
	c-6.2-3.5-14-1.3-17.6,4.8c-3.5,6.2-1.3,14,4.8,17.6c1.1,0.6,2.3,1.1,3.5,1.4l-1.7,3c-0.8-0.9-1.8-1.7-2.9-2.3
	c-6.2-3.5-14-1.3-17.6,4.8c-3.5,6.2-1.3,14,4.8,17.6c1.1,0.6,2.3,1.1,3.5,1.4l-9.7,17c-2.5,4.5-1.1,9.8,3.4,12.3l3.3,1.9l0,0
	l0.4,0.2c-5.8,11.5,4,27.9,21.8,38c10.6,6,21.8,8.4,30.4,7.2c9.4,3.2,22.9-0.1,35-8.9c11.5-8.4,22.6-29.2,26.2-36
	c0.4-0.8,0.8-1.5,1-1.8c2.4-4.2,12.9-38.8,3.3-44.3c-2-1.1-4.1-1.8-6.2-2.1l16.8-29.6C228.5,112.7,226.8,106.5,222.4,103.9z
	 M126.2,100.4c1.9-3.4,6.2-4.5,9.6-2.6c0.4,0.2,0.8,0.5,1.1,0.8c2.5,2.1,3.2,5.8,1.5,8.8c-1.7,3-5.2,4.2-8.3,3.2
	c-0.4-0.1-0.8-0.3-1.3-0.6C125.5,108.1,124.3,103.8,126.2,100.4z M113.5,132.2c-3.4-1.9-4.5-6.2-2.6-9.6c1.9-3.4,6.2-4.5,9.6-2.6
	c1.2,0.7,2.1,1.6,2.7,2.8c1.1,2.1,1.2,4.6-0.1,6.8c-1.2,2.2-3.5,3.4-5.8,3.5C116,133.2,114.7,132.9,113.5,132.2z M99.6,156.6
	c-3.4-1.9-4.5-6.2-2.6-9.6c1.9-3.4,6.2-4.5,9.6-2.6c1.2,0.7,2.1,1.6,2.7,2.8c1.1,2.1,1.2,4.6-0.1,6.8c-1.2,2.2-3.5,3.4-5.8,3.5
	C102.1,157.6,100.8,157.3,99.6,156.6z M212.5,153.9c0.7,0.5,2,4.7-0.2,17.1c-1.6,8.8-4.2,17.2-5.3,19.1c-0.2,0.4-0.6,1.1-1.1,2
	c-3.5,6.5-14.1,26.4-24.5,34c-0.8,0.6-1.6,1.1-2.4,1.6c-0.2,0.2-0.5,0.3-0.7,0.4c-0.6,0.4-1.1,0.7-1.7,1c-0.3,0.1-0.5,0.3-0.8,0.4
	c-0.6,0.3-1.2,0.6-1.8,0.9c-0.2,0.1-0.4,0.2-0.7,0.3c-0.7,0.3-1.4,0.6-2,0.9c-0.1,0.1-0.2,0.1-0.4,0.2c-5.7,2.4-11.3,3.4-15.9,2.9
	c-0.2,0-0.3,0-0.5-0.1c-0.3,0-0.6-0.1-0.9-0.2c-0.2,0-0.5-0.1-0.7-0.2c-0.2-0.1-0.5-0.1-0.7-0.2c-0.3-0.1-0.6-0.2-0.9-0.3
	c-0.2-0.1-0.3-0.1-0.5-0.2c-0.4-0.2-0.9-0.4-1.3-0.6c-0.3-0.2-0.6-0.4-0.9-0.6l-9,0c-5.9-0.7-11-2.7-17-6.1
	c-7.6-4.3-13.7-10-17.2-15.9c-1.6-2.8-4-8.3-1.9-12.6l36.2,20.6l5.3,3c0.3-1.6,0.8-3.3,1.6-5.1c0.2-0.6,0.5-1.1,0.8-1.7
	c2.9-5.7,7.8-11.3,14-15.8c4.3-3.2,9-5.6,13.6-7.1c3.1-1,6.1-1.7,8.9-1.8c0.1,0,0.1,0,0.2,0c0.8-0.1,1.5-0.5,2-1.1
	c0.5-0.6,0.7-1.4,0.6-2.2c0-0.4,0.1-1,0.3-1.8c1.5-6.1,8-23,10.4-27.2c1.8-3.1,4.8-5,8.1-5.4C208.1,152.3,210.4,152.7,212.5,153.9z
	 M122.2,168.8l39.4-69.2l36.6,20.8l-39.4,69.2L122.2,168.8z M219.9,113.7l-19.6,34.4c-3.1,1.4-5.9,3.7-7.7,6.9
	c-1.4,2.5-6.2,13.8-9.2,22.6c-0.9,2.6-1.6,5.1-2,6.9c-0.7,0.1-1.4,0.2-2.2,0.4c-4,0.7-8.1,2.2-12.2,4.1l40.6-71.2l-48.8-27.8
	l-46.3,81.4l43.4,24.7c-5.8,4.7-10.5,10.2-13.4,15.9l-41.5-23.6l-3.7-2.1c-1.1-0.6-1.4-1.7-0.7-2.8l12.3-21.6
	c2.2-1.1,4.1-2.8,5.4-5.1c1.3-2.3,1.8-4.8,1.6-7.2l6.9-12.1c2.2-1.1,4.1-2.8,5.4-5.1c1.3-2.3,1.8-4.8,1.6-7.2l5-8.8
	c3.6-0.7,6.8-2.9,8.7-6.2c1.9-3.4,2.1-7.3,0.9-10.7l12.4-21.8c0.6-1.1,2-1.9,3.1-1.3l59,33.6C220,110.7,220.5,112.6,219.9,113.7z"/>
<path fill="#0099FF" d="M100.5,90.9l12.7,19.3c-0.2,0-0.4,0.1-0.5,0.1c-2.2,0.6-4.1,1.6-5.8,3l-8.3-12.6l-35.2,23.1l29.6,45.1
	l-3.9,6.9l-35.4-53.9L100.5,90.9z M93.2,196.1l-1.1-0.6c-3.9-2.2-6.2-6.2-6.4-10.3l-6.3-9.7c0-2.4-0.7-4.9-2.1-7.1
	c-1.4-2.2-3.4-3.8-5.7-4.8l-5.5-8.4c1-3.5,0.5-7.4-1.6-10.6c-2.1-3.3-5.5-5.2-9.1-5.7l-14.1-21.5c-0.6-0.9-0.3-2.2,0.6-2.8
	l56.7-37.2c1.2-0.8,2.9-0.5,3.7,0.8l14.1,21.5c0.4-1.3,0.9-2.7,1.6-3.9c0.6-1.1,1.4-2.1,2.2-3l-12.1-18.4c-2.9-4.5-9-5.7-13.4-2.8
	l-56.7,37.2c-4.2,2.7-5.3,8.3-2.6,12.5l12.4,18.9c-0.4,0.2-0.8,0.4-1.2,0.7c-5.9,3.9-7.6,11.9-3.7,17.8c3.9,5.9,11.9,7.6,17.8,3.7
	c0.4-0.3,0.8-0.5,1.1-0.8l1,1.5c-1.7,0.5-3.4,1.4-4.8,2.7c-4.7,4.1-5.7,11.2-2.4,16.5c3.8,6.1,12,7.9,18,3.9c1.1-0.7,2-1.6,2.8-2.5
	l1.9,2.9c-1.7,0.5-3.4,1.4-4.8,2.7c-4.7,4.1-5.7,11.2-2.4,16.5c3.8,6.1,12,7.9,18,3.9c1.1-0.7,2-1.6,2.8-2.5l2.4,3.7
	C92.3,205.8,91.9,200.7,93.2,196.1z M58.7,156.7c-0.9,0.9-2.1,1.6-3.5,1.9c-2.4,0.5-5-0.3-6.6-2.2c-2.9-3.3-2.1-8.2,1.4-10.6
	c0.4-0.3,0.8-0.5,1.2-0.6c3-1.2,6.6-0.2,8.5,2.7C61.5,150.7,61.1,154.4,58.7,156.7z M73,178.4c-0.8,1.6-2.1,3-4.1,3.7
	c-2.5,0.9-5.3,0.2-7.2-1.6c-3.3-3.3-2.6-8.5,1.1-10.9c1.1-0.7,2.4-1.1,3.7-1.1c2.3-0.1,4.7,1.1,6,3.2C73.9,173.7,74,176.3,73,178.4z
	 M88.4,201.9c-0.8,1.6-2.1,3-4.1,3.7c-2.5,0.9-5.3,0.2-7.2-1.6c-3.3-3.3-2.6-8.5,1.1-10.9c1.1-0.7,2.4-1.1,3.7-1.1
	c2.3-0.1,4.7,1.1,6,3.2C89.3,197.2,89.4,199.7,88.4,201.9z"/>
<path fill="#0099FF" d="M197,33.7c0-3.2-2.8-5.9-6-5.9c-3.2,0-6,2.6-6,5.9v12.2c-9-15.7-34.6-26.6-65.1-26.6
	C87.2,19.2,61,31.8,53,49.3V33.7c0-3.2-2.8-5.9-6-5.9c-3.2,0-6,2.6-6,5.9v27.2c0,1.6,0.7,3.2,1.8,4.3c1.1,1.1,2.7,1.9,4.2,1.9h27.2
	c3.2,0,5.9-2.8,5.9-6c0-3.2-2.6-6-5.9-6h-11C67.9,41,92,31,120,31c28,0,52.1,10.1,56.9,24.1H164c-3.2,0-5.9,2.8-5.9,6
	c0,3.2,2.6,6,5.9,6h27.2c1.6,0,3-0.8,4.1-1.9c1.1-1.1,1.7-2.7,1.7-4.3V33.7z"/>
</svg>
