<?xml version="1.0" encoding="utf-8"?>
<!-- Generator: Adobe Illustrator 18.0.0, SVG Export Plug-In . SVG Version: 6.00 Build 0)  -->
<!DOCTYPE svg PUBLIC "-//W3C//DTD SVG 1.1//EN" "http://www.w3.org/Graphics/SVG/1.1/DTD/svg11.dtd">
<svg version="1.1" xmlns="http://www.w3.org/2000/svg" xmlns:xlink="http://www.w3.org/1999/xlink" x="0px" y="0px"
	 viewBox="0 0 247.1 247.1" enable-background="new 0 0 247.1 247.1" xml:space="preserve">
<g id="レイヤー_1" display="none">
	<g display="inline">
		<g>
			<rect x="53.5" y="384.5" width="140" height="140"/>
			<circle cx="123.5" cy="384.5" r="70"/>
			<circle cx="123.5" cy="524.5" r="70"/>
		</g>
		<g>
			<g>
				<g>
					<path d="M127,637.5c-30.5,0-60-12.1-81.1-33.1c-22.8-22.8-35.4-51.2-35.4-79.9v-70.4c0-7.2,5.8-13,13-13s13,5.8,13,13v70.4
						c0,48,39,87,87,87c48,0,87-39,87-87v-70.4c0-7.2,5.8-13,13-13s13,5.8,13,13v70.4c0,31.8-10.8,59.4-31.4,79.9
						C183.5,626.1,156.5,637.5,127,637.5z"/>
					<path d="M223.5,444.1c5.5,0,10,4.5,10,10v60v10.4c0,29.4-9.7,57-30.5,77.8c-20.8,20.8-46.7,32.2-76,32.2
						c-29.4,0-58.2-11.4-78.9-32.2c-20.8-20.8-34.5-48.4-34.5-77.8v-10.4v-60c0-5.5,4.5-10,10-10s10,4.5,10,10v60v10.4
						c0,49.6,40.4,90,90,90s90-40.4,90-90v-10.4v-60C213.5,448.5,218,444.1,223.5,444.1 M223.5,438.1c-8.8,0-16,7.2-16,16v60v10.4
						c0,46.3-37.7,84-84,84s-84-37.7-84-84v-10.4v-60c0-8.8-7.2-16-16-16s-16,7.2-16,16v60v10.4c0,15.1,3.4,30.1,10,44.6
						c6.2,13.6,15.1,26.2,26.3,37.4c21.6,21.6,51.9,34,83.2,34c30.3,0,58.1-11.7,80.3-34c21.1-21.1,32.2-49.5,32.2-82v-10.4v-60
						C239.5,445.2,232.4,438.1,223.5,438.1L223.5,438.1z"/>
				</g>
			</g>
			<g>
				<g>
					<path d="M123.5,697.1c-7.2,0-13-5.8-13-13v-58c0-7.2,5.8-13,13-13c7.2,0,13,5.8,13,13v58C136.5,691.2,130.7,697.1,123.5,697.1z
						"/>
					<path d="M123.5,616.1c5.5,0,10,4.5,10,10v58c0,5.5-4.5,10-10,10c-5.5,0-10-4.5-10-10v-58C113.5,620.5,118,616.1,123.5,616.1
						 M123.5,610.1c-8.8,0-16,7.2-16,16v58c0,8.8,7.2,16,16,16s16-7.2,16-16v-58C139.5,617.2,132.4,610.1,123.5,610.1L123.5,610.1z"
						/>
				</g>
			</g>
			<g>
				<g>
					<path d="M70,701.5c-7.2,0-13-5.8-13-13s5.8-13,13-13h116c7.2,0,13,5.8,13,13s-5.8,13-13,13H70z"/>
					<path d="M186,678.5c5.5,0,10,4.5,10,10s-4.5,10-10,10H70c-5.5,0-10-4.5-10-10s4.5-10,10-10h115.5 M186,672.5H70
						c-8.8,0-16,7.2-16,16s7.2,16,16,16h116c8.8,0,16-7.2,16-16S194.9,672.5,186,672.5L186,672.5z"/>
				</g>
			</g>
		</g>
	</g>
	
		<circle display="inline" fill="none" stroke="#000000" stroke-width="24" stroke-miterlimit="10" cx="123.5" cy="511.5" r="235.1"/>
</g>
<g id="レイヤー_2" display="none">
	<rect x="22.7" y="344" display="inline" fill="#C513D3" width="20" height="20"/>
	<rect x="182.7" y="344" display="inline" fill="#C513D3" width="20" height="20"/>
	<rect x="117.9" y="534" display="inline" fill="#C513D3" width="20" height="50"/>
</g>
<g id="レイヤー_3">
	<g>
		<g>
			<rect x="88.5" y="60" width="70" height="70"/>
			<circle cx="123.5" cy="60" r="35"/>
			<circle cx="123.5" cy="130" r="35"/>
		</g>
		<path d="M173.5,86.8c-4.4,0-8,3.6-8,8v30v5.2c0,23.2-18.8,42-42,42c-23.2,0-42-18.8-42-42v-5.2v-30c0-4.4-3.6-8-8-8s-8,3.6-8,8v30
			v5.2c0,7.5,1.7,15.1,5,22.3c3.1,6.8,7.5,13.1,13.1,18.7c8.5,8.5,19.9,14.2,31.9,16.2v17.3H96.8c-4.4,0-8,3.6-8,8s3.6,8,8,8h58
			c4.4,0,8-3.6,8-8s-3.6-8-8-8h-23.2v-16.9c13-1.4,24.3-7.1,33.9-16.6c10.5-10.5,16.1-24.7,16.1-41v-5.2v-30
			C181.5,90.4,177.9,86.8,173.5,86.8z"/>
	</g>
	<g>
		<path d="M123.5,247.1c-33,0-64-12.8-87.4-36.2C12.8,187.6,0,156.5,0,123.5s12.8-64,36.2-87.4C59.5,12.8,90.5,0,123.5,0
			c33,0,64,12.8,87.4,36.2c23.3,23.3,36.2,54.4,36.2,87.4s-12.8,64-36.2,87.4C187.6,234.2,156.5,247.1,123.5,247.1z M123.5,12
			c-29.8,0-57.8,11.6-78.9,32.7S12,93.7,12,123.5s11.6,57.8,32.7,78.9c21.1,21.1,49.1,32.7,78.9,32.7s57.8-11.6,78.9-32.7
			c21.1-21.1,32.7-49.1,32.7-78.9s-11.6-57.8-32.7-78.9C181.3,23.6,153.3,12,123.5,12z"/>
	</g>
</g>
</svg>
