<?xml version="1.0" encoding="UTF-8" standalone="no"?>
<svg width="1360px" height="1360px" viewBox="0 0 1360 1360" version="1.1" xmlns="http://www.w3.org/2000/svg" xmlns:xlink="http://www.w3.org/1999/xlink" xmlns:sketch="http://www.bohemiancoding.com/sketch/ns">
    <!-- Generator: Sketch 3.2.2 (9983) - http://www.bohemiancoding.com/sketch -->
    <title>ui_circle</title>
    <desc>Created with Sketch.</desc>
    <defs></defs>
    <g id="Welcome" stroke="none" stroke-width="1" fill="none" fill-rule="evenodd" sketch:type="MSPage">        
        <ellipse id="Oval-1" fill="#03A9F4" sketch:type="MSShapeGroup" cx="680" cy="681" rx="680" ry="681"></ellipse>
        <path d="M680,1216.07143 C975.077852,1216.07143 1214.28571,976.51179 1214.28571,681 C1214.28571,385.48821 975.077852,145.928571 680,145.928571 C384.922148,145.928571 145.714286,385.48821 145.714286,681 C145.714286,976.51179 384.922148,1216.07143 680,1216.07143 Z" id="Oval-2" fill="#4FC3F7" sketch:type="MSShapeGroup"></path>
        <path d="M680,1070.14286 C894.602074,1070.14286 1068.57143,895.917665 1068.57143,681 C1068.57143,466.082335 894.602074,291.857143 680,291.857143 C465.397926,291.857143 291.428571,466.082335 291.428571,681 C291.428571,895.917665 465.397926,1070.14286 680,1070.14286 Z" id="Oval-3" fill="#B3E5FC" sketch:type="MSShapeGroup"></path>
        <path d="M680,924.214286 C814.126296,924.214286 922.857143,815.323541 922.857143,681 C922.857143,546.676459 814.126296,437.785714 680,437.785714 C545.873704,437.785714 437.142857,546.676459 437.142857,681 C437.142857,815.323541 545.873704,924.214286 680,924.214286 Z" id="Oval-3" fill="#000000" sketch:type="MSShapeGroup"></path>
    </g>
</svg>